<svg xmlns="http://www.w3.org/2000/svg" version="1.1" xmlns:xlink="http://www.w3.org/1999/xlink" xmlns:svgjs="http://svgjs.dev/svgjs" width="1440" height="560" preserveAspectRatio="none" viewBox="0 0 1440 560"><g mask="url(&quot;#SvgjsMask1000&quot;)" fill="none"><rect width="1440" height="560" x="0" y="0" fill="#0e2a47"></rect><path d="M1400 354.67C1390.63 354.67 1377.73 389.42 1377.73 420C1377.73 435.33 1390.16 446.49 1400 446.49C1408.61 446.49 1414.63 434.29 1414.63 420C1414.63 388.38 1409.08 354.67 1400 354.67" stroke="rgba(51, 121, 194, 0.58)" stroke-width="2"></path><path d="M114.55 140C133.61 98.94 126.31 95.94 140 52.5C148.37 25.94 136.64 8.26 158.67 0C206.64 -17.99 219.33 0 280 0C350 0 350 0 420 0C456 0 488.75 -22.77 492 0C498.75 47.23 469.38 71.83 440 140C433.38 155.38 429.64 153.29 420 167.1C380.75 223.29 359.73 217.48 342.22 280C324.31 343.93 366.85 357.22 349.16 420C335.74 467.65 325.09 485.6 280 500.85C220.51 520.97 207.35 507.04 140 490.75C67.35 473.18 64.41 465.68 0 433.13C-5.59 430.31 0 426.57 0 420C0 407.64 -2.93 407.22 0 395.29C14.27 337.22 9.92 334.53 34.39 280C67.2 206.88 80.81 212.69 114.55 140" stroke="rgba(51, 121, 194, 0.58)" stroke-width="2"></path><path d="M116.67 0C116.67 14.73 40.72 56 0 56C-17.62 56 -18.92 9.08 0 0C39.42 -18.92 116.67 -13.27 116.67 0" stroke="rgba(51, 121, 194, 0.58)" stroke-width="2"></path><path d="M896.34 140C937.1 96.66 931.26 87.55 980 55.31C1037.09 17.55 1043.55 25.46 1108 0C1113.55 -2.19 1114 0 1120 0C1190 0 1190 0 1260 0C1318.95 0 1360.38 -31.33 1377.89 0C1399.5 38.67 1368.32 74.77 1338.24 140C1309.37 202.6 1314.4 224 1260 255.65C1205.28 287.49 1189.93 267.78 1120 266.98C1049.93 266.18 1046.26 247.47 980 252.46C959.79 253.98 947.06 264.6 947.06 280C947.06 298.86 961.28 302.61 980 320.98C1032.62 372.61 1089.73 368.71 1089.73 420C1089.73 474.61 1043.09 490.26 980 532.78C939.22 560.26 931.54 550.37 882 560C861.54 563.98 861 560 840 560C770 560 770 560 700 560C630 560 630 560 560 560C532.93 560 508.94 579.17 505.87 560C497.74 509.17 543.03 488.45 537.6 420C531.92 348.45 476.9 341.24 483.64 280C488.1 239.42 515.09 229.07 560 216.36C623.27 198.45 630.18 221.79 700 218.75C770.18 215.69 778.9 228.68 840 204.17C877.07 189.3 867.1 171.09 896.34 140" stroke="rgba(51, 121, 194, 0.58)" stroke-width="2"></path><path d="M1500 140C1508.1 68.69 1529.8 0 1540 0C1549.8 0 1540 70 1540 140C1540 210 1540 210 1540 280C1540 350 1540 350 1540 420C1540 490 1575 525 1540 560C1505 595 1470 560 1400 560C1330 560 1330 560 1260 560C1192.41 560 1144.8 593.29 1124.83 560C1102.8 523.29 1140.47 484.4 1176 420C1208.05 361.9 1226.63 315 1260 315C1287.72 315 1269.21 373.21 1298.18 420C1339.21 486.25 1355 541.08 1400 541.08C1439.34 541.08 1440.55 483.51 1466.87 420C1494.64 352.97 1499.73 351.4 1508.18 280C1516.3 211.4 1492.19 208.69 1500 140" stroke="rgba(51, 121, 194, 0.58)" stroke-width="2"></path><path d="M700 381.38C663.92 381.38 630 394.54 630 420C630 453.85 662.13 500 700 500C743.79 500 793.33 452.56 793.33 420C793.33 393.25 745.58 381.38 700 381.38" stroke="rgba(51, 121, 194, 0.58)" stroke-width="2"></path><path d="M19.44 0C19.44 2.45 6.78 9.33 0 9.33C-2.94 9.33 -3.15 1.51 0 0C6.57 -3.15 19.44 -2.21 19.44 0" stroke="rgba(51, 121, 194, 0.58)" stroke-width="2"></path><path d="M280 59.39C252.64 59.39 236.44 18.66 236.44 0C236.44 -11.04 258.22 0 280 0C326.66 0 373.33 -13.59 373.33 0C373.33 16.11 321.09 59.39 280 59.39" stroke="rgba(51, 121, 194, 0.58)" stroke-width="2"></path><path d="M939.02 140C939.02 117.83 953.47 106.5 980 98.52C1043.96 79.28 1061.43 113.25 1120 85.56C1165.65 63.99 1146.1 25.88 1188.44 0C1216.1 -16.9 1224.22 0 1260 0C1288.24 0 1316.49 -17.32 1316.49 0C1316.49 38.19 1294.94 61.37 1260 111.03C1245.69 131.37 1240.45 128.05 1218 140C1170.45 165.32 1171.78 173.6 1120 185.58C1052.78 201.14 1040.76 210.38 980 195.08C950.27 187.59 939.02 166.11 939.02 140" stroke="rgba(51, 121, 194, 0.58)" stroke-width="2"></path><path d="M95.79 280C109.18 238.61 109.41 203.64 140 203.64C186.3 203.64 197.25 239.01 249.57 280C267.25 293.85 271.65 292.97 280 313.33C300.36 362.97 306.99 369.82 306.99 420C306.99 438.93 299.1 447.76 280 451.55C215.6 464.32 207.61 463.28 140 453.12C102.61 447.5 77.79 450.5 70 420C55.68 363.94 74.18 346.79 95.79 280" stroke="rgba(51, 121, 194, 0.58)" stroke-width="2"></path><path d="M547.27 280C547.27 273.09 552.11 269.39 560 269.39C597.37 269.39 637.78 269.75 637.78 280C637.78 290.97 592.15 311.82 560 311.82C546.89 311.82 547.27 294.3 547.27 280" stroke="rgba(51, 121, 194, 0.58)" stroke-width="2"></path><path d="M731.11 280C731.11 260.1 788.11 252.78 840 252.78C861.77 252.78 878.43 262.96 878.43 280C878.43 304.57 866.28 336 840 336C792.62 336 731.11 301.71 731.11 280" stroke="rgba(51, 121, 194, 0.58)" stroke-width="2"></path><path d="M957.6 420C957.6 412.84 969.44 406.34 980 406.34C988.21 406.34 995.14 412.92 995.14 420C995.14 427.53 988.32 435.56 980 435.56C969.55 435.56 957.6 427.45 957.6 420" stroke="rgba(51, 121, 194, 0.58)" stroke-width="2"></path><path d="M1519.1 420C1519.1 395.76 1534.54 373.33 1540 373.33C1544.99 373.33 1540 396.66 1540 420C1540 461.17 1545.14 502.35 1540 502.35C1534.69 502.35 1519.1 460.27 1519.1 420" stroke="rgba(51, 121, 194, 0.58)" stroke-width="2"></path><path d="M552.53 560C552.53 549.5 553.09 533.33 560 533.33C569 533.33 584.35 552.04 584.35 560C584.35 565.37 572.17 560 560 560C556.26 560 552.53 562.83 552.53 560" stroke="rgba(51, 121, 194, 0.58)" stroke-width="2"></path><path d="M1245.52 560C1245.52 551.15 1252.08 533.75 1260 533.75C1268.45 533.75 1278.26 551.65 1278.26 560C1278.26 564.77 1269.13 560 1260 560C1252.76 560 1245.52 564.27 1245.52 560" stroke="rgba(51, 121, 194, 0.58)" stroke-width="2"></path></g><defs><mask id="SvgjsMask1000"><rect width="1440" height="560" fill="#ffffff"></rect></mask></defs></svg>